# xmcd CD database file
#
# Track frame offsets:
#	150
#	23795
#	43373
#	75190
#	109036
#	143668
#	157300
#	181814
#	210030
#	227285
#	249695
#	303383
#	327163
#
# Disc length: 4750 seconds
#
# Revision: 0
# Processed by: cddbd v1.5.2PL0 Copyright (c) Steve Scherf et al.
# Submitted via: CDex 1.78
#
DISCID=9c128c0d
DTITLE=Jimmy Smith - Lou Donaldson Quartet - Complete Studio Recordings CD2
DYEAR=1957
DGENRE=Jazz
TTITLE0=STREET OF DREAMS 
TTITLE1=CHA CHA J 
TTITLE2=LOVER MAN 
TTITLE3=WHEN MY DREAMBOAT COMES HOME 
TTITLE4=PORK CHOP 
TTITLE5=MATILDA, MATILDA! 
TTITLE6=CAN HEAT 
TTITLE7=PLEASE SEND ME SOMEONE TO LOVE 
TTITLE8=JUST A CLOSER WALK WITH THEE 
TTITLE9=TRUST IN ME 
TTITLE10=THERE'S A SMALL HOTEL 
TTITLE11=SOMEBODY LOVES ME 
TTITLE12='ROUND MIDNIGHT 
EXTD=YEAR: 1957
EXTT0=
EXTT1=
EXTT2=
EXTT3=
EXTT4=
EXTT5=
EXTT6=
EXTT7=
EXTT8=
EXTT9=
EXTT10=
EXTT11=
EXTT12=
PLAYORDER=
